<svg xmlns="http://www.w3.org/2000/svg" version="1.1" xmlns:xlink="http://www.w3.org/1999/xlink" xmlns:svgjs="http://svgjs.com/svgjs" width="512" height="512" x="0" y="0" viewBox="0 0 32 32" style="enable-background:new 0 0 512 512" xml:space="preserve" class=""><g><path fill="#717377" d="M13.892 24.123h3.357v-8.124h2.239l.297-2.799h-2.536l.003-1.402c0-.73.07-1.121 1.117-1.121h1.4v-2.8h-2.24c-2.69 0-3.637 1.358-3.637 3.642V13.2h-1.677V16h1.677z" data-original="#414752" class=""></path><path fill="#717377" d="M16 1c8.271 0 15 6.729 15 15s-6.729 15-15 15S1 24.271 1 16 7.729 1 16 1m0-1C7.163 0 0 7.163 0 16s7.163 16 16 16 16-7.163 16-16S24.837 0 16 0z" data-original="#414752" class=""></path></g></svg>