<svg xmlns="http://www.w3.org/2000/svg" version="1.1" xmlns:xlink="http://www.w3.org/1999/xlink" xmlns:svgjs="http://svgjs.com/svgjs" width="512" height="512" x="0" y="0" viewBox="0 0 32 32" style="enable-background:new 0 0 512 512" xml:space="preserve" class=""><g><path fill="#717377" d="M23.247 21.927v-5.36c0-2.872-1.533-4.208-3.577-4.208-1.649 0-2.388.907-2.8 1.544v-1.324h-3.107c.041.877 0 9.348 0 9.348h3.107v-5.221c0-.279.02-.558.103-.757.224-.558.735-1.136 1.593-1.136 1.125 0 1.574.857 1.574 2.113v5.001zM10.49 11.303c1.083 0 1.758-.718 1.758-1.616-.02-.917-.675-1.614-1.738-1.614s-1.757.697-1.757 1.614c0 .897.675 1.616 1.717 1.616zm1.553 10.624v-9.348H8.937v9.348z" data-original="#414752" class=""></path><path fill="#717377" d="M16 1c8.271 0 15 6.729 15 15s-6.729 15-15 15S1 24.271 1 16 7.729 1 16 1m0-1C7.163 0 0 7.163 0 16s7.164 16 16 16 16-7.164 16-16S24.836 0 16 0z" data-original="#414752" class=""></path></g></svg>