<svg xmlns="http://www.w3.org/2000/svg" version="1.1" xmlns:xlink="http://www.w3.org/1999/xlink" xmlns:svgjs="http://svgjs.com/svgjs" width="512" height="512" x="0" y="0" viewBox="0 0 512 512" style="enable-background:new 0 0 512 512" xml:space="preserve"><g><path d="m511.963 477.045-25.6-272.971a8.534 8.534 0 0 0-4.542-6.767l-98.133-51.283c-.182-.095-.393-.075-.58-.156-.559-.242-1.153-.356-1.768-.475-.592-.116-1.152-.251-1.752-.241-.135.002-.251-.061-.388-.053-.484.03-.89.254-1.347.361-.464.107-.948.061-1.394.247l-30.379 12.629c-4.354 1.808-6.412 6.804-4.604 11.154a8.524 8.524 0 0 0 11.154 4.604l19.332-8.036 15.93 254.663-123.358 44.928V288.478a8.533 8.533 0 0 0-17.066 0v177.171L124.11 420.721l15.93-254.663 19.332 8.036c4.358 1.812 9.35-.246 11.154-4.604 1.808-4.35-.25-9.346-4.604-11.154l-30.379-12.629c-.444-.184-.926-.139-1.388-.245-.459-.107-.868-.332-1.354-.363-.136-.007-.252.056-.387.055-.62-.011-1.198.132-1.809.256-.572.117-1.127.219-1.651.443-.207.088-.439.067-.64.171l-98.133 51.283a8.537 8.537 0 0 0-4.542 6.767L.039 477.045a8.53 8.53 0 0 0 3.621 7.8 8.539 8.539 0 0 0 8.571.688l103.429-49.725 137.421 50.05a8.48 8.48 0 0 0 5.842 0l137.421-50.05 103.429 49.725a8.539 8.539 0 0 0 8.571-.687 8.54 8.54 0 0 0 3.619-7.801zm-404.974-56.009-88.552 42.575 23.758-253.325 80.611-42.128-15.817 252.878zm298.021 0-15.817-252.878 80.611 42.128 23.758 253.325-88.552-42.575z" style="" fill="#ffffff" data-original="#333333"></path><path d="m180.812 146.641 67.858 113.725a8.534 8.534 0 0 0 14.658 0l68.042-114.05c3.275-6.083 5.467-11.237 6.892-16.229a80.069 80.069 0 0 0 3.071-22c0-11.171-2.271-22.008-6.754-32.221-4.317-9.829-10.496-18.654-18.354-26.221-7.833-7.546-16.958-13.471-27.113-17.608-21-8.55-45.225-8.55-66.225 0-10.154 4.137-19.279 10.063-27.108 17.608-7.863 7.567-14.042 16.392-18.358 26.225-4.483 10.208-6.754 21.046-6.754 32.217a80.08 80.08 0 0 0 3.071 22.004c1.424 4.987 3.616 10.141 7.074 16.55zm12.234-63.909c3.417-7.783 8.321-14.779 14.571-20.796 6.267-6.037 13.571-10.779 21.704-14.092 8.45-3.442 17.425-5.183 26.679-5.183 9.254 0 18.229 1.742 26.679 5.183 8.133 3.312 15.438 8.054 21.708 14.092 6.246 6.017 11.15 13.012 14.567 20.792a62.72 62.72 0 0 1 5.313 25.358c0 5.883-.812 11.708-2.412 17.313-1.079 3.775-2.829 7.85-5.325 12.5L256 239.341l-60.346-101.117c-2.679-4.975-4.429-9.05-5.508-12.821a63.097 63.097 0 0 1-2.412-17.317 62.67 62.67 0 0 1 5.312-25.354z" style="" fill="#ffffff" data-original="#333333"></path><path d="M256 153.62c23.525 0 42.667-19.142 42.667-42.667S279.525 68.286 256 68.286s-42.667 19.142-42.667 42.667S232.475 153.62 256 153.62zm0-68.267c14.117 0 25.6 11.483 25.6 25.6s-11.483 25.6-25.6 25.6-25.6-11.483-25.6-25.6 11.483-25.6 25.6-25.6z" style="" fill="#ffffff" data-original="#333333"></path></g></svg>