<svg xmlns="http://www.w3.org/2000/svg" version="1.1" xmlns:xlink="http://www.w3.org/1999/xlink" xmlns:svgjs="http://svgjs.com/svgjs" width="512" height="512" x="0" y="0" viewBox="0 0 64 64" style="enable-background:new 0 0 512 512" xml:space="preserve"><g><path d="m51.019 23.001.836-.836a3.127 3.127 0 0 0 0-4.411l-1.966-1.966a3.13 3.13 0 0 0-4.409.002l-.885.885a22.86 22.86 0 0 0-7.281-3.147v-2.46a2.994 2.994 0 0 0 2.424-2.935 2.995 2.995 0 0 0-2.991-2.991h-9.494a2.995 2.995 0 0 0-2.991 2.991 2.995 2.995 0 0 0 2.424 2.935v2.46a22.845 22.845 0 0 0-7.076 3.015l-.753-.754a3.127 3.127 0 0 0-4.411 0l-1.966 1.966a3.127 3.127 0 0 0 .002 4.408l.639.64a22.844 22.844 0 0 0-4.099 13.076C9.022 48.55 19.33 58.857 32 58.857S54.978 48.55 54.978 35.88c0-4.769-1.462-9.203-3.959-12.879zm-4.124-5.797a1.123 1.123 0 0 1 1.583 0l1.962 1.962c.437.438.438 1.149.002 1.584l-.631.631a23.178 23.178 0 0 0-3.574-3.518zm-20.633-9.07c0-.547.445-.991.991-.991h9.494a.991.991 0 0 1 0 1.983h-9.494a.993.993 0 0 1-.991-.992zm2.424 2.992h6.628v2.018A23.083 23.083 0 0 0 32 12.902c-1.126 0-2.231.085-3.314.242zm-14.79 9.624a1.123 1.123 0 0 1 0-1.582l1.961-1.962a1.126 1.126 0 0 1 1.585-.002l.511.511a23.183 23.183 0 0 0-3.611 3.481zM32 56.857c-11.567 0-20.978-9.41-20.978-20.978S20.433 14.901 32 14.901s20.978 9.411 20.978 20.979S43.567 56.857 32 56.857z" fill="#ffffff" data-original="#000000"></path><path d="M32 17.78c-9.98 0-18.099 8.119-18.099 18.1 0 9.979 8.119 18.099 18.099 18.099S50.1 45.86 50.1 35.88c0-9.981-8.12-18.1-18.1-18.1zm12.037 28.754c-.031-.044-.049-.094-.089-.134l-1.294-1.294a.999.999 0 1 0-1.414 1.414l1.294 1.294c.04.04.09.058.134.089a16.007 16.007 0 0 1-9.691 4.025c.009-.055.033-.104.033-.161v-1.83a1 1 0 1 0-2 0v1.83c0 .058.023.107.033.162a16.014 16.014 0 0 1-9.697-4.013c.044-.031.094-.049.133-.088l1.294-1.294a.999.999 0 1 0-1.414-1.414l-1.294 1.294c-.039.039-.057.09-.089.134a16.009 16.009 0 0 1-4.026-9.692c.055.009.104.033.161.033h1.83a1 1 0 1 0 0-2h-1.83c-.058 0-.107.023-.162.033a16.009 16.009 0 0 1 4.014-9.696c.031.044.049.094.088.133l1.294 1.294a.997.997 0 0 0 1.414 0 .999.999 0 0 0 0-1.414l-1.294-1.294c-.039-.039-.09-.057-.134-.089a16.012 16.012 0 0 1 9.691-4.026c-.009.055-.033.104-.033.161v1.83a1 1 0 1 0 2 0v-1.83c0-.058-.023-.107-.033-.162a16.011 16.011 0 0 1 9.696 4.013c-.044.031-.094.049-.133.089l-1.294 1.294a.999.999 0 1 0 1.414 1.414l1.294-1.294c.04-.04.057-.09.089-.134a16.006 16.006 0 0 1 4.026 9.691c-.055-.009-.104-.033-.161-.033h-1.83a1 1 0 1 0 0 2h1.83c.058 0 .107-.023.162-.033a15.996 15.996 0 0 1-4.012 9.698z" fill="#ffffff" data-original="#000000"></path><path d="M33 32.276v-6.497a1 1 0 1 0-2 0v6.497c-1.583.441-2.755 1.881-2.755 3.602 0 .672.192 1.293.501 1.839l-3.91 3.911a.999.999 0 1 0 1.414 1.414l3.91-3.91c.546.31 1.168.502 1.84.502a3.76 3.76 0 0 0 3.755-3.756c0-1.721-1.172-3.161-2.755-3.602zm-1 5.359a1.757 1.757 0 0 1 0-3.511 1.757 1.757 0 0 1 0 3.511z" fill="#ffffff" data-original="#000000"></path></g></svg>