<svg xmlns="http://www.w3.org/2000/svg" version="1.1" xmlns:xlink="http://www.w3.org/1999/xlink" xmlns:svgjs="http://svgjs.com/svgjs" width="512" height="512" x="0" y="0" viewBox="0 0 99.418 99.418" style="enable-background:new 0 0 512 512" xml:space="preserve"><g><path d="M49.703 77.732c-15.452 0-28.023-12.571-28.023-28.023s12.571-28.023 28.023-28.023 28.023 12.571 28.023 28.023-12.571 28.023-28.023 28.023zm0-52.046c-13.246 0-24.023 10.777-24.023 24.023s10.777 24.023 24.023 24.023c13.247 0 24.023-10.776 24.023-24.023S62.95 25.686 49.703 25.686zM49.703 17.274a2 2 0 0 1-2-2V2a2 2 0 0 1 4 0v13.273a2 2 0 0 1-2 2.001zM19.879 34.492c-.648.37-11.767-6.693-12.494-6.905-2.262-1.262-.23-4.798 2.001-3.464l11.495 6.637c1.77.941.964 3.808-1.002 3.732zM8.388 75.563c-1.962.074-2.775-2.789-1.002-3.732l11.495-6.637c2.226-1.327 4.268 2.199 2 3.465-1.065.387-11.433 7.067-12.493 6.904zM49.703 99.418a2 2 0 0 1-2-2V84.144a2 2 0 0 1 4 0v13.273a2 2 0 0 1-2 2.001zM91.018 75.563c-.729.318-11.709-6.652-12.493-6.904-2.255-1.314-.275-4.766 2-3.465l11.495 6.637c1.77.942.964 3.808-1.002 3.732zM79.527 34.492c-1.961.074-2.776-2.789-1.002-3.732l11.495-6.637a2 2 0 1 1 2 3.464l-11.495 6.637a1.99 1.99 0 0 1-.998.268zM32.488 21.887a2.001 2.001 0 0 1-1.734-1l-3.362-5.823a2 2 0 1 1 3.464-2l3.362 5.823c.789 1.282-.241 3.038-1.73 3zM15.268 51.71H8.544a2 2 0 0 1 0-4h6.724a2 2 0 0 1 0 4zM29.121 87.354c-1.489.037-2.519-1.718-1.73-3l3.362-5.823a2 2 0 0 1 3.464 2l-3.362 5.823c-.37.642-1.042 1-1.734 1zM70.285 87.354a2 2 0 0 1-1.734-1l-3.361-5.823a2 2 0 0 1 3.464-2l3.361 5.823c.788 1.282-.242 3.039-1.73 3zM90.863 51.71h-6.724a2 2 0 0 1 0-4h6.724a2 2 0 0 1 0 4zM66.919 21.887c-1.488.036-2.519-1.717-1.73-3.001l3.361-5.823a2 2 0 0 1 3.464 2l-3.361 5.823a1.996 1.996 0 0 1-1.734 1.001z" fill="#fffdfd" data-original="#000000"></path></g></svg>