<svg xmlns="http://www.w3.org/2000/svg" version="1.1" xmlns:xlink="http://www.w3.org/1999/xlink" xmlns:svgjs="http://svgjs.com/svgjs" width="512" height="512" x="0" y="0" viewBox="0 0 512 512" style="enable-background:new 0 0 512 512" xml:space="preserve" class=""><g><path d="M47.868 160.77a3.26 3.26 0 0 1-2.37 3.951 89.352 89.352 0 0 0-6.19 1.779 3.256 3.256 0 1 1-2.028-6.19 97.32 97.32 0 0 1 6.638-1.91 3.254 3.254 0 0 1 3.95 2.37zM297.909 55.614H230.35a29.536 29.536 0 0 0-25.872 15.294l-14.174 25.69c34.793-2.564 109.246-2.917 147.703.131l-14.226-25.82a29.533 29.533 0 0 0-25.872-15.295zM27.762 167.575a3.257 3.257 0 0 0-4.42-1.295c-10.217 5.586-18.149 13.151-22.94 21.875a3.257 3.257 0 0 0 5.71 3.134c4.191-7.635 11.23-14.306 20.355-19.295a3.255 3.255 0 0 0 1.295-4.419zm79.401 266.743V414.49H49.14c-8.52 0-16.259-3.491-21.86-9.119v28.947c0 12.167 9.927 22.068 22.12 22.068h35.694c12.168 0 22.069-9.901 22.069-22.068zm313.932-19.828v19.828c0 12.167 9.927 22.068 22.095 22.068h35.695c12.194 0 22.095-9.901 22.095-22.068v-28.816c-5.576 5.549-13.262 8.989-21.729 8.989h-58.156zm-39.728 14.525a3.257 3.257 0 1 0 0-6.514h-9.022a3.257 3.257 0 1 0 0 6.514zm-26.272 0a3.257 3.257 0 1 0 0-6.514h-49.547a3.257 3.257 0 1 0 0 6.514zm148.463-63.21H24.83v17.889c0 13.391 10.891 24.283 24.309 24.283h430.11c13.393 0 24.309-10.891 24.309-24.283zm7.608-153.186c-1.407 4.194-6.696 9.666-36.529 8.858l-.156.208c13.288 10.631 29.077 30.145 29.077 63.157v74.438H24.83v-74.438c0-25.065 10.344-48.565 27.67-62.896.079-.052.156-.131.079-.312-.052-.131-.104-.131-.208-.131-28.738.599-33.896-4.794-35.251-8.885-5.397-16.008 14.163-29.37 31.891-33.819 15.281-3.767 23.458 3.723 23.606 16.883 0 .285.342.387.495.156l35.043-65.371c14.513-27.097 88.168-29.363 156.041-29.363 35.069.784 139.383-2.105 156.197 29.363 4.768 8.885 13.445 25.117 21.991 41.141l12.975 24.283.287-.104c.258-23.09 23.549-21.26 42.261-9.197 9.145 5.915 16.66 15.767 13.259 26.029zM86.397 225.62h355.437c2.472 0 4.012-2.641 2.866-4.768-2.747-5.21-42.578-80.202-43.303-80.925-14.669-15.476-83.192-17.56-133.426-17.77-21.079-.013-131.319-.43-141.32 18.238l-43.12 80.43c-1.157 2.15.366 4.795 2.866 4.795zm60.942 70.713-88.69-18.212c-7.576-1.56-14.236 5.249-12.584 12.741l2.579 11.751a10.666 10.666 0 0 0 4.352 6.514c9.119 6.253 25.898 17.196 36.033 20.374 3.245.965 6.451.296 9.249-1.485 4.352-2.814 12.428-3.674 23.606-4.82 14.643-1.56 20.174-1.432 29.286-7.555 7.811-5.229 5.49-17.388-3.831-19.308zm160.236 30.354a3.258 3.258 0 0 0-3.257-3.257H223.94a3.258 3.258 0 0 0 0 6.514h80.378a3.26 3.26 0 0 0 3.257-3.257zm28.999-22.773a3.258 3.258 0 0 0-3.257-3.257h-138.35a3.258 3.258 0 0 0 0 6.514h138.35a3.258 3.258 0 0 0 3.257-3.257zm133.061-25.794-88.716 18.212c-9.279 1.912-11.67 14.061-3.83 19.306 4.846 3.257 9.718 5.211 14.409 5.836 18.995 2.532 32.344 2.576 38.508 6.54 1.98 1.276 4.117 1.928 6.227 1.928 8.133 0 32.379-16.244 39.03-20.817 2.241-1.538 3.778-3.856 4.377-6.514l2.554-11.751c1.665-7.551-5.042-14.288-12.559-12.74z" fill="#ffffff" data-original="#000000"></path></g></svg>